<?xml version="1.0" encoding="UTF-8" standalone="no"?>
<svg
        xmlns:dc="http://purl.org/dc/elements/1.1/"
        xmlns:cc="http://creativecommons.org/ns#"
        xmlns:rdf="http://www.w3.org/1999/02/22-rdf-syntax-ns#"
        xmlns:svg="http://www.w3.org/2000/svg"
        xmlns="http://www.w3.org/2000/svg"
        viewBox="0 0 574 573"
        id="svg815"
        version="1.1">
    <metadata
            id="metadata821">
        <rdf:RDF>
            <cc:Work
                    rdf:about="">
                <dc:format>image/svg+xml</dc:format>
                <dc:type
                        rdf:resource="http://purl.org/dc/dcmitype/StillImage"/>
                <dc:title></dc:title>
            </cc:Work>
        </rdf:RDF>
    </metadata>
    <defs
            id="defs819"/>
    <g
            id="g825">
        <path
                id="path841"
                d="M 0,286.5 V 0 H 287 574 V 286.5 573 H 287 0 Z"
                style="fill:#fcfcfc"/>
        <path
                id="path839"
                d="M 34,562.33626 C 24.588622,559.03924 16.521175,550.74387 12.277455,540 10.590989,535.73036 10.5,522.75357 10.5,286.5 v -249 l 2.333938,-5.782311 c 4.29955,-10.652096 12.938124,-19.171407 21.988753,-21.685179 5.1073,-1.4185298 499.247319,-1.4185298 504.354619,0 9.05063,2.513772 17.6892,11.033083 21.98875,21.685179 L 563.5,37.5 l 0.2769,244 c 0.19005,167.47267 -0.0541,246.19546 -0.77845,251 -1.93575,12.83959 -8.59717,22.62183 -19.2141,28.21575 L 538.5,563.5 l -250,0.20636 C 63.11732,563.89239 38.056888,563.75748 34,562.33626 Z M 130,342.2101 c 0,-198.04759 -0.32047,-187.18171 5.81581,-197.19203 3.35071,-5.46612 10.65709,-11.1504 17.5497,-13.65347 4.86816,-1.76788 10.60679,-1.87982 110.63449,-2.15809 72.37202,-0.20133 108.12678,0.0507 113.8653,0.80259 9.85118,1.29076 21.83132,5.44686 29.99387,10.40535 8.60887,5.22961 19.85173,17.50625 24.80474,27.08555 6.61112,12.78611 11.36572,30.37852 11.3012,41.81538 -0.0968,17.15401 -7.32795,36.13935 -18.43225,48.39353 -10.66129,11.76529 -26.97784,20.60499 -44.03286,23.85536 -4.95,0.94337 -9.5625,1.86322 -10.25,2.04409 -0.97347,0.25612 -1.25,9.10461 -1.25,39.99726 v 39.6684 l 9.75,-0.71062 c 24.82999,-1.80971 49.57119,-9.62124 71.77383,-22.66111 C 488.96046,317.91532 513.07157,282.93875 520.39152,240 527.1409,200.40817 523.26669,170.65124 506.85979,136.06595 484.65317,89.255005 447.63271,61.174408 395.65022,51.711768 383.57564,49.513769 382.79343,49.5 270,49.5 H 156.5 l -10.14776,2.248101 C 104.87185,60.937523 77.692576,81.00862 61.376757,114.5 56.086853,125.35855 52.379115,139.42931 51.013763,153.82727 50.374471,160.56875 50.001364,230.52591 50.000836,343.75 L 50,523 h 40 40 z M 495.5,483.5 v -37 l -114.40266,-0.25425 c -82.52088,-0.1834 -114.77814,-0.56587 -115.75,-1.37245 -1.8586,-1.5425 -1.99981,-79.82083 -0.14734,-81.6733 0.89044,-0.89044 10.82222,-1.2 38.5,-1.2 H 341 v -38 -38 l -35.75,-0.0136 c -19.6625,-0.008 -36.73137,-0.27686 -37.93083,-0.59855 -1.19945,-0.32168 -2.45592,-1.30179 -2.79216,-2.17802 -0.33624,-0.87622 -0.89002,-20.41207 -1.23062,-43.413 -0.41813,-28.23639 -0.97285,-42.1048 -1.70783,-42.6971 -1.03608,-0.83495 -69.2698,-3.08861 -70.83856,-2.33969 -0.4125,0.19692 -0.75,19.82048 -0.75,43.6079 0,35.72761 -0.24633,43.58746 -1.41628,45.19098 -1.2436,1.70446 -3.04195,2.00209 -14.75,2.44113 l -13.33372,0.5 v 37.5 37.5 l 13.67073,0.5 c 7.5189,0.275 14.0439,0.87474 14.5,1.33277 0.4561,0.45802 1.05427,31.95802 1.32927,70 0.56013,77.48463 -0.0623,71.44283 8.16979,79.30044 4.73104,4.5158 7.73457,6.32808 12.33021,7.43983 1.65,0.39915 66.45,0.65851 144,0.57635 l 141,-0.14939 v -37 z"
                style="fill:#97dfd1"/>
        <path
                id="path837"
                d="M 36.081368,562.41657 C 26.172616,559.74329 18.953262,553.39556 14.135165,543.12001 L 11.5,537.5 v -251 -251 l 2.874165,-6.222373 C 17.898967,21.64667 25.55778,14.105385 32.502913,11.427071 37.388987,9.542811 43.042784,9.5 287,9.5 c 243.95722,0 249.61101,0.042811 254.49709,1.927071 6.94513,2.678314 14.60394,10.219599 18.12874,17.850556 L 562.5,35.5 v 251.02103 251.02102 l -3.28057,6.6638 c -3.85215,7.82482 -10.9643,14.73 -17.97523,17.45212 -4.55809,1.76977 -14.4532,1.84945 -252.2442,2.03126 -214.40863,0.16393 -248.224485,-0.006 -252.918632,-1.27266 z m 500.195962,-10.4767 c 5.19583,-1.44289 10.58876,-6.4572 13.37136,-12.43259 L 551.98046,534.5 551.85463,434 c -0.0692,-55.275 -0.40231,-112.99002 -0.74023,-128.2556 L 550.5,277.98881 470.50234,357.9944 390.50469,438 l 50.99765,0.0876 c 28.04871,0.0482 53.24766,0.38568 55.99766,0.75 l 5,0.66239 0.26052,43.11882 c 0.20381,33.73207 -0.0139,43.34235 -1,44.1456 -0.83006,0.67614 -35.63113,1.27778 -101.90802,1.7618 l -100.64749,0.73503 -11.14626,10.49229 c -6.13044,5.77076 -10.86436,10.77448 -10.51983,11.11938 0.64266,0.64334 93.93379,1.5488 196.96108,1.91165 38.03286,0.13395 59.30039,-0.15684 61.77733,-0.8447 z M 130.01698,341 c 0.41759,-147.41498 0.77081,-183.26899 1.83733,-186.5 3.76259,-11.39886 11.62029,-19.32991 22.56073,-22.77135 L 161.5,129.5 l 108.5,0.0212 108.5,0.0212 7.87816,2.2207 c 22.51793,6.34739 37.27607,18.45477 47.21796,38.73698 10.98695,22.41421 12.73197,46.73916 4.72635,65.88368 -6.72059,16.07152 -19.32831,29.57357 -34.68925,37.14993 -8.45977,4.17256 -25.8821,9.46639 -31.15446,9.46639 -1.24563,0 -2.53793,0.7118 -2.87177,1.58179 -0.89274,2.32643 -0.7105,76.70715 0.19141,78.12626 0.89023,1.40072 15.00078,0.28564 29.16532,-2.30478 32.31636,-5.91004 68.99081,-26.39057 88.84637,-49.61549 16.15288,-18.89392 27.54979,-42.34721 32.06624,-65.98799 7.89741,-41.3379 4.20942,-73.36638 -12.52441,-108.76883 C 483.37059,85.295574 440.49423,55.391256 383.98102,49.985354 376.1686,49.238038 337.51083,48.999606 263,49.239172 154.91179,49.586695 153.38146,49.619095 144.30569,51.752187 118.39302,57.842484 99.866595,67.291752 84.162386,82.427836 67.976785,98.027898 58.646151,114.52085 52.723287,138 l -2.144215,8.5 -0.312379,187.46928 c -0.171808,103.10811 -0.08921,188.05084 0.183543,188.76163 0.396139,1.03232 8.398709,1.23971 39.772843,1.03072 L 129.5,523.5 Z M 496,483.5 V 446 H 381.57143 c -102.69264,0 -114.58974,-0.16117 -116,-1.57143 C 264.19689,443.05404 264,437.99894 264,404.08356 c 0,-36.18556 0.12114,-38.88322 1.81492,-40.41606 1.60262,-1.45035 6.13534,-1.67319 38.75,-1.90499 L 341.5,361.5 v -38 -38 l -37.72124,-0.262 c -34.65783,-0.24072 -37.7942,-0.40314 -38.61974,-2 -0.49418,-0.9559 -1.21274,-20.638 -1.5968,-43.738 -0.38406,-23.1 -1.00518,-42.31446 -1.38026,-42.69879 -0.85369,-0.87476 -70.92124,-3.08038 -72.22666,-2.27358 -0.58355,0.36065 -0.9553,17.64212 -0.9553,44.40894 0,34.98662 -0.26501,44.03848 -1.3148,44.90973 -0.7568,0.62808 -6.80449,1.21055 -14.25,1.37244 L 160.5,285.5 160.23812,323.75 159.97623,362 h 12.82076 c 8.69616,0 13.35989,0.40214 14.49658,1.25 1.53471,1.14473 1.69818,7.01887 1.94113,69.75 0.26414,68.20133 0.27479,68.51774 2.44288,72.56821 2.69357,5.0322 9.20196,11.01935 14.68541,13.50931 3.98525,1.80964 9.37364,1.87936 146.88701,1.90052 L 496,521 Z"
                style="fill:#6dc7b6"/>
        <path
                id="path835"
                d="M 36.081368,562.41657 C 26.172616,559.74329 18.953262,553.39556 14.135165,543.12001 L 11.5,537.5 v -251 -251 l 2.874165,-6.222373 C 17.898967,21.64667 25.55778,14.105385 32.502913,11.427071 37.388987,9.542811 43.042784,9.5 287,9.5 c 243.95722,0 249.61101,0.042811 254.49709,1.927071 6.94513,2.678314 14.60394,10.219599 18.12874,17.850556 L 562.5,35.5 v 251.02103 251.02102 l -3.28057,6.6638 c -3.85215,7.82482 -10.9643,14.73 -17.97523,17.45212 C 536.68611,563.42774 526.791,563.50742 289,563.68923 74.59137,563.85316 40.775515,563.683 36.081368,562.41657 Z M 536.32078,551.92788 c 5.25574,-1.45944 10.97882,-6.92415 13.80967,-13.18624 L 552.5,533.5 l -0.1664,-168 c -0.0915,-92.4 -0.48292,-186.61925 -0.86978,-209.37612 l -0.70338,-41.37612 -14.8613,14.87612 -14.8613,14.87612 2.05709,6.5 c 8.21095,25.94509 10.56671,49.31388 7.4598,74 -2.42833,19.29434 -5.15812,32.01543 -9.218,42.95667 -13.93074,37.54296 -39.75309,65.9465 -76.83673,84.51733 -21.6208,10.82731 -36.80409,15.09234 -64.84714,18.21576 -15.53744,1.73054 -15.87455,1.72754 -17.25,-0.15349 C 361.26713,368.98306 361,362.42457 361,336.09303 V 303.56832 L 355.5,309 350,314.43168 v 25.56165 c 0,20.74832 -0.2739,25.95271 -1.45459,27.63837 -1.3884,1.98222 -2.67384,2.10896 -28.25,2.78545 L 293.5,371.12589 283.25,381.29508 273,391.46427 v 23.10625 23.10626 l 32.25,0.65993 c 17.7375,0.36297 68.78036,0.66069 113.42857,0.66161 72.46392,0.002 81.34727,0.17038 82.75,1.57311 1.37845,1.37845 1.57143,6.70532 1.57143,43.37755 0,33.01115 -0.27258,42.03235 -1.29569,42.88146 -0.90951,0.75482 -44.98474,1.11915 -147.87988,1.22237 -167.07821,0.1676 -150.02342,1.12285 -161.11028,-9.02383 -9.22654,-8.44411 -11.10666,-12.49 -11.56561,-24.88844 l -0.3845,-10.38692 -20.88202,20.86426 C 141.24587,523.23818 139,525.83264 139,528.74107 139,531.75518 138.75437,532 135.73025,532 c -2.79965,0 -4.62991,1.36584 -12.73025,9.5 -5.20327,5.225 -9.24439,9.56662 -8.98025,9.64803 4.97238,1.53272 416.85071,2.29331 422.30103,0.77985 z M 130.01698,341 c 0.41759,-147.41498 0.77081,-183.26899 1.83733,-186.5 3.76259,-11.39886 11.62029,-19.32991 22.56073,-22.77135 L 161.5,129.5 l 108.5,0.0212 108.5,0.0212 7.87816,2.2207 c 22.51793,6.34739 37.27607,18.45477 47.21796,38.73698 10.98695,22.41421 12.73197,46.73916 4.72635,65.88368 -6.72059,16.07152 -19.32831,29.57357 -34.68925,37.14993 -8.45977,4.17256 -25.8821,9.46639 -31.15446,9.46639 -1.24563,0 -2.53793,0.7118 -2.87177,1.58179 -0.89274,2.32643 -0.7105,76.70715 0.19141,78.12626 0.89023,1.40072 15.00078,0.28564 29.16532,-2.30478 32.31636,-5.91004 68.99081,-26.39057 88.84637,-49.61549 16.15288,-18.89392 27.54979,-42.34721 32.06624,-65.98799 7.89741,-41.3379 4.20942,-73.36638 -12.52441,-108.76883 C 483.37059,85.295574 440.49423,55.391256 383.98102,49.985354 376.1686,49.238038 337.51083,48.999606 263,49.239172 154.91179,49.586695 153.38146,49.619095 144.30569,51.752187 118.39302,57.842484 99.866595,67.291752 84.162386,82.427836 67.976785,98.027898 58.646151,114.52085 52.723287,138 l -2.144215,8.5 -0.312379,187.46928 c -0.171808,103.10811 -0.08921,188.05084 0.183543,188.76163 0.396139,1.03232 8.398709,1.23971 39.772843,1.03072 L 129.5,523.5 Z M 496,483.5 V 446 H 381.57143 c -102.69264,0 -114.58974,-0.16117 -116,-1.57143 C 264.19689,443.05404 264,437.99894 264,404.08356 c 0,-36.18556 0.12114,-38.88322 1.81492,-40.41606 1.60262,-1.45035 6.13534,-1.67319 38.75,-1.90499 L 341.5,361.5 v -38 -38 l -37.72124,-0.262 c -34.65783,-0.24072 -37.7942,-0.40314 -38.61974,-2 -0.49418,-0.9559 -1.21274,-20.638 -1.5968,-43.738 -0.38406,-23.1 -1.00518,-42.31446 -1.38026,-42.69879 -0.85369,-0.87476 -70.92124,-3.08038 -72.22666,-2.27358 -0.58355,0.36065 -0.9553,17.64212 -0.9553,44.40894 0,34.98662 -0.26501,44.03848 -1.3148,44.90973 -0.7568,0.62808 -6.80449,1.21055 -14.25,1.37244 L 160.5,285.5 160.23812,323.75 159.97623,362 h 12.82076 c 8.69616,0 13.35989,0.40214 14.49658,1.25 1.53471,1.14473 1.69818,7.01887 1.94113,69.75 0.26414,68.20133 0.27479,68.51774 2.44288,72.56821 2.69357,5.0322 9.20196,11.01935 14.68541,13.50931 3.98525,1.80964 9.37364,1.87936 146.88701,1.90052 L 496,521 Z M 411.5,257.7275 c 5.16682,-3.99776 11.48672,-11.17364 14.07162,-15.9775 0.81386,-1.5125 1.34919,-2.75 1.18963,-2.75 -0.15956,0 -6.13361,5.90179 -13.27568,13.1151 -12.39333,12.51695 -12.95271,14.09809 -1.98557,5.6124 z"
                style="fill:#a0a1a1"/>
        <path
                id="path833"
                d="M 38,562.07415 C 28.60124,560.17379 19.664168,552.78385 15.170182,543.1965 L 12.5,537.5 v -251 -251 l 2.635165,-5.620011 C 18.550049,22.597075 23.584776,17.100827 30.196447,13.438076 L 35.5,10.5 H 287 538.5 l 5.30355,2.938076 c 6.61167,3.662751 11.6464,9.158999 15.06128,16.441913 L 561.5,35.5 v 251 251 l -2.67018,5.6965 c -3.25193,6.93759 -9.62895,13.5089 -16.32982,16.82736 l -5,2.47614 -248,0.14091 C 153.1,562.71841 39.925,562.46337 38,562.07415 Z m 501.65327,-10.79513 c 5.37382,-2.87367 9.90627,-8.43685 11.99353,-14.72099 1.53473,-4.62065 1.61179,-18.3418 1.00268,-178.53168 -0.36291,-95.43949 -0.95158,-189.20543 -1.30815,-208.36875 L 550.693,114.81519 535.86542,129.6576 521.03784,144.5 l 2.05709,6.5 c 8.21095,25.94509 10.56671,49.31388 7.4598,74 -2.42833,19.29434 -5.15812,32.01543 -9.218,42.95667 -13.93074,37.54296 -39.75309,65.9465 -76.83673,84.51733 -21.6208,10.82731 -36.80409,15.09234 -64.84714,18.21576 -15.53744,1.73054 -15.87455,1.72754 -17.25,-0.15349 C 361.26713,368.98306 361,362.42457 361,336.09303 V 303.56832 L 355.5,309 350,314.43168 v 25.56165 c 0,20.74832 -0.2739,25.95271 -1.45459,27.63837 -1.3884,1.98222 -2.67384,2.10896 -28.25,2.78545 L 293.5,371.12589 283.25,381.29508 273,391.46427 v 23.10625 23.10626 l 32.25,0.65993 c 17.7375,0.36297 68.78036,0.66069 113.42857,0.66161 72.46392,0.002 81.34727,0.17038 82.75,1.57311 1.35924,1.35924 1.55446,5.30883 1.44577,29.25 -0.0691,15.22321 -0.40661,34.20357 -0.75,42.17857 l -0.62434,14.5 -15,0.6202 c -8.25,0.34112 -74.44876,0.72787 -147.10836,0.85945 -150.65535,0.27283 -135.59517,1.19185 -146.67749,-8.95067 -9.22654,-8.44411 -11.10666,-12.49 -11.56561,-24.88844 l -0.3845,-10.38692 -20.88202,20.86426 C 141.24587,523.23818 139,525.83264 139,528.74107 139,531.75518 138.75437,532 135.73025,532 c -2.79699,0 -4.62193,1.35782 -12.62174,9.39104 l -9.35199,9.39103 13.37174,0.70285 c 12.01858,0.63172 335.91823,2.41308 387.37174,2.13044 19.66285,-0.10801 21.26445,-0.25678 25.15327,-2.33634 z M 129.73419,524.18544 c 0.96994,-0.61609 1.29109,-39.84705 1.5,-183.23468 0.24817,-170.34122 0.38131,-182.78835 2.00595,-187.53711 3.43823,-10.04977 10.1032,-16.81184 20.4053,-20.70259 L 159.5,130.5 l 109.5,0.0144 109.5,0.0144 8,2.25844 c 26.85332,7.58085 43.90252,24.86673 51.96407,52.68544 4.03645,13.92894 4.82098,20.95586 3.58111,32.07517 -3.09939,27.7955 -21.82299,50.44269 -49.54518,59.9275 -2.75,0.94088 -9.05,2.49148 -14,3.44578 l -9,1.73508 -0.26151,40.36034 c -0.14383,22.19819 0.0812,40.69385 0.5,41.10148 0.99986,0.97309 24.81598,-1.57207 33.76151,-3.60801 19.15456,-4.35943 39.50408,-13.29457 57.36032,-25.18599 25.16141,-16.75632 44.5496,-41.94345 54.90288,-71.32412 3.81171,-10.81691 5.70554,-20.06055 7.8044,-38.0925 2.96856,-25.50388 0.9341,-45.35037 -7.21745,-70.4075 -2.97927,-9.15799 -11.90333,-28.51856 -16.57484,-35.95876 C 475.65193,81.120498 441.6836,58.577843 395.40397,50.276508 386.29282,48.64221 376.2942,48.5 270.5,48.5 h -115 l -10.0158,2.246101 C 111.70026,58.32234 88.594406,72.351416 71.149225,95.87973 c -9.868529,13.30968 -15.927564,26.78278 -19.854329,44.14883 -1.546836,6.84086 -1.716893,23.33224 -2.014928,195.39835 -0.262108,151.32439 -0.07761,188.08424 0.947263,188.73469 1.638719,1.04003 77.871119,1.06289 79.506959,0.0238 z M 496.5,483.5 v -38 l -114.40266,-0.25425 c -82.52088,-0.1834 -114.77814,-0.56587 -115.75,-1.37245 -1.85794,-1.54195 -1.999,-77.82164 -0.14734,-79.6733 0.89031,-0.89031 10.79845,-1.2 38.39301,-1.2 32.99267,0 37.26156,-0.17864 37.8,-1.58179 0.33385,-0.86998 0.60699,-18.10498 0.60699,-38.3 0,-27.22527 -0.31024,-37.02845 -1.2,-37.91821 -0.89042,-0.89042 -10.81799,-1.2 -38.48095,-1.2 H 266.0381 l -0.47525,-2.25 c -0.26139,-1.2375 -0.77347,-21.07216 -1.13796,-44.07701 -0.47048,-29.69503 -0.99078,-41.93768 -1.7938,-42.20856 -1.99461,-0.67282 -72.93955,-2.48928 -73.54661,-1.88306 -0.32146,0.32101 -0.80948,20.68403 -1.08448,45.25115 l -0.5,44.66748 -12,0.24533 c -6.6,0.13493 -13.01778,0.48233 -14.26172,0.772 l -2.26173,0.52666 0.26173,38.728 L 159.5,362.5 l 12,0.24533 c 6.6,0.13493 12.99774,0.4773 14.21719,0.76082 l 2.21719,0.51548 0.28281,68.73919 c 0.28111,68.32544 0.29584,68.76326 2.44808,72.73918 1.9479,3.59847 6.85848,8.86679 11.57525,12.41854 5.39845,4.06505 3.04646,4.00632 151.75948,3.78936 L 496.5,521.5 Z m -85,-225.7725 c 5.16682,-3.99776 11.48672,-11.17364 14.07162,-15.9775 0.81386,-1.5125 1.34919,-2.75 1.18963,-2.75 -0.15956,0 -6.13361,5.90179 -13.27568,13.1151 -12.39333,12.51695 -12.95271,14.09809 -1.98557,5.6124 z"
                style="fill:#48b29d"/>
        <path
                id="path831"
                d="M 38,562.07415 C 28.60124,560.17379 19.664168,552.78385 15.170182,543.1965 L 12.5,537.5 v -251 -251 l 2.635165,-5.620011 C 18.550049,22.597075 23.584776,17.100827 30.196447,13.438076 L 35.5,10.5 H 287 538.5 l 5.30355,2.938076 c 6.61167,3.662751 11.6464,9.158999 15.06128,16.441913 L 561.5,35.5 v 251 251 l -2.67018,5.6965 c -3.25193,6.93759 -9.62895,13.5089 -16.32982,16.82736 l -5,2.47614 -248,0.14091 C 153.1,562.71841 39.925,562.46337 38,562.07415 Z m 501.65327,-10.79513 c 2.2843,-1.22154 5.53425,-3.89633 7.2221,-5.94399 6.55181,-7.94848 6.13776,4.95031 5.9951,-186.76317 C 552.79923,262.83234 552.46173,151.425 552.12047,111 L 551.5,37.5 548.39392,32 c -2.16062,-3.825864 -4.57186,-6.413165 -7.92156,-8.5 l -4.81548,-3 H 287.00004 38.343201 l -4.815521,3 c -3.349764,2.086855 -5.760954,4.674099 -7.9216,8.5 L 22.5,37.5 22.242067,283.9668 c -0.287122,274.35853 -0.820959,253.06115 6.547887,261.22741 7.21073,7.99104 -13.562096,7.24227 217.710046,7.84753 305.78148,0.80026 288.16234,0.9062 293.15327,-1.76272 z M 42.475446,528.75 C 42.165984,527.5125 42.064867,441.9 42.250741,338.5 42.621086,132.48061 42.297988,143.59609 48.465254,124.70319 55.431411,103.36295 71.318949,81.198435 89.130037,67.972236 103.58052,57.24156 116.66223,51.132068 136.98869,45.621023 L 148.5,42.5 h 121 c 135.8754,0 128.44396,-0.366747 152.65266,7.533532 54.30051,17.720458 90.24422,59.389978 105.59899,122.420838 2.49772,10.25304 2.69002,12.58838 2.67996,32.54563 -0.009,17.97261 -0.38841,23.63284 -2.31226,34.5 -6.01961,34.00285 -19.07525,59.62717 -42.05093,82.53349 -26.69435,26.61374 -61.60544,43.14217 -100.24078,47.45835 -17.58118,1.9641 -22.44462,1.94868 -23.22065,-0.0736 C 362.27314,368.54823 362,347.67833 362,323.04066 c 0,-34.64292 0.28331,-45.01974 1.25,-45.78396 0.6875,-0.5435 4.27653,-1.28501 7.97562,-1.64779 9.27733,-0.90987 22.91794,-5.02493 31.24333,-9.4254 4.36923,-2.3094 9.80149,-6.48134 14.56198,-11.18351 21.45796,-21.19506 24.78539,-50.45627 9.31969,-81.95678 C 417.96612,155.9657 404.13893,144.68996 385,139.3228 378.89131,137.60974 371.90785,137.5 269,137.5 H 159.5 l -5.5,2.59339 c -7.71137,3.6361 -11.65904,8.06289 -14.02698,15.72938 C 138.03942,162.08305 138,165.8707 138,345.40534 138,486.55674 137.7246,528.8754 136.8,529.8 135.90124,530.69876 123.98201,531 89.319052,531 H 43.038104 Z m 87.258744,-4.56456 c 0.96994,-0.61609 1.29109,-39.84705 1.5,-183.23468 0.24817,-170.34122 0.38131,-182.78835 2.00595,-187.53711 3.43823,-10.04977 10.1032,-16.81184 20.4053,-20.70259 L 159.5,130.5 l 109.5,0.0144 109.5,0.0144 8,2.25844 c 26.85332,7.58085 43.90252,24.86673 51.96407,52.68544 4.03645,13.92894 4.82098,20.95586 3.58111,32.07517 -3.09939,27.7955 -21.82299,50.44269 -49.54518,59.9275 -2.75,0.94088 -9.05,2.49148 -14,3.44578 l -9,1.73508 -0.26151,40.36034 c -0.14383,22.19819 0.0812,40.69385 0.5,41.10148 0.99986,0.97309 24.81598,-1.57207 33.76151,-3.60801 19.15456,-4.35943 39.50408,-13.29457 57.36032,-25.18599 25.16141,-16.75632 44.5496,-41.94345 54.90288,-71.32412 3.81171,-10.81691 5.70554,-20.06055 7.8044,-38.0925 2.96856,-25.50388 0.9341,-45.35037 -7.21745,-70.4075 -2.97927,-9.15799 -11.90333,-28.51856 -16.57484,-35.95876 C 475.65193,81.120498 441.6836,58.577843 395.40397,50.276508 386.29282,48.64221 376.2942,48.5 270.5,48.5 h -115 l -10.0158,2.246101 C 111.70026,58.32234 88.594406,72.351416 71.149225,95.87973 c -9.868529,13.30968 -15.927564,26.78278 -19.854329,44.14883 -1.546836,6.84086 -1.716893,23.33224 -2.014928,195.39835 -0.262108,151.32439 -0.07761,188.08424 0.947263,188.73469 1.638719,1.04003 77.871119,1.06289 79.506959,0.0238 z m 75.9638,2.45573 c -8.12484,-3.07994 -16.53462,-10.66158 -20.90468,-18.84611 L 182.5,503.5 182,437 181.5,370.5 168.29585,370 c -7.2704,-0.27531 -13.67888,-0.97659 -14.26054,-1.56054 -0.71806,-0.72088 -0.97294,-15.29297 -0.79585,-45.5 L 153.5,278.5 l 14,-0.5 14,-0.5 0.26022,-44.63603 c 0.19866,-34.07768 0.55347,-44.86217 1.5,-45.59203 1.7009,-1.31156 84.56484,1.15312 85.96875,2.55703 0.66396,0.66396 1.28527,16.33715 1.72052,43.4019 0.37469,23.29947 1.0159,42.90412 1.4249,43.5659 0.55767,0.90232 9.93213,1.20323 37.48463,1.20323 27.24298,0 37.05119,0.31021 37.94098,1.2 1.84646,1.84646 1.71428,87.12829 -0.13742,88.66507 -0.91351,0.75815 -13.03708,1.19315 -38.25,1.37244 L 272.5,369.5 l -0.26296,34.75 -0.26296,34.75 103.26296,0.13156 c 56.79463,0.0724 108.43796,0.40986 114.76296,0.75 l 11.5,0.61844 0.261,42.439 c 0.14355,23.34145 -0.0851,42.78511 -0.50814,43.20814 -0.42303,0.42303 -66.24048,1.03153 -146.261,1.35222 -125.26163,0.502 -146.02052,0.38267 -149.29387,-0.85819 z M 496.5,483.5 v -38 l -114.40266,-0.25425 c -82.52088,-0.1834 -114.77814,-0.56587 -115.75,-1.37245 -1.85794,-1.54195 -1.999,-77.82164 -0.14734,-79.6733 0.89031,-0.89031 10.79845,-1.2 38.39301,-1.2 32.99267,0 37.26156,-0.17864 37.8,-1.58179 0.33385,-0.86998 0.60699,-18.10498 0.60699,-38.3 0,-27.22527 -0.31024,-37.02845 -1.2,-37.91821 -0.89042,-0.89042 -10.81799,-1.2 -38.48095,-1.2 H 266.0381 l -0.47525,-2.25 c -0.26139,-1.2375 -0.77347,-21.07216 -1.13796,-44.07701 -0.47048,-29.69503 -0.99078,-41.93768 -1.7938,-42.20856 -1.99461,-0.67282 -72.93955,-2.48928 -73.54661,-1.88306 -0.32146,0.32101 -0.80948,20.68403 -1.08448,45.25115 l -0.5,44.66748 -12,0.24533 c -6.6,0.13493 -13.01778,0.48233 -14.26172,0.772 l -2.26173,0.52666 0.26173,38.728 L 159.5,362.5 l 12,0.24533 c 6.6,0.13493 12.99774,0.4773 14.21719,0.76082 l 2.21719,0.51548 0.28281,68.73919 c 0.28111,68.32544 0.29584,68.76326 2.44808,72.73918 1.9479,3.59847 6.85848,8.86679 11.57525,12.41854 5.39845,4.06505 3.04646,4.00632 151.75948,3.78936 L 496.5,521.5 Z"
                style="fill:#3b8577"/>
        <path
                id="path829"
                d="M 38,562.07415 C 28.60124,560.17379 19.664168,552.78385 15.170182,543.1965 L 12.5,537.5 v -251 -251 l 2.635165,-5.620011 C 18.550049,22.597075 23.584776,17.100827 30.196447,13.438076 L 35.5,10.5 H 287 538.5 l 5.30355,2.938076 c 6.61167,3.662751 11.6464,9.158999 15.06128,16.441913 L 561.5,35.5 v 251 251 l -2.67018,5.6965 c -3.25193,6.93759 -9.62895,13.5089 -16.32982,16.82736 l -5,2.47614 -248,0.14091 C 153.1,562.71841 39.925,562.46337 38,562.07415 Z m 500.5,-9.974 c 5.20612,-2.41554 9.83058,-7.36825 12.69878,-13.60015 l 2.30122,-5 -0.30828,-246 C 553.02216,152.2 552.62974,40.15 552.31968,38.5 550.94131,31.165019 544.67196,23.424347 537.78212,20.550681 534.45741,19.163989 507.93643,19 287,19 66.063569,19 39.542585,19.163989 36.217881,20.550681 31.526806,22.50727 26.454924,27.334277 23.662371,32.5 L 21.5,36.5 21.242114,284.46822 c -0.237433,228.30128 -0.12687,248.36267 1.394018,252.94164 2.117436,6.375 9.42683,13.8904 14.921389,15.34193 2.677985,0.70746 83.003849,1.06761 250.442479,1.1229 238.11166,0.0786 246.63612,0.0182 250.5,-1.77454 z M 44.676636,529.3433 C 43.482926,528.14959 43.876507,153.70551 45.079895,145.69155 49.042688,119.30136 59.639145,98.21921 78.411182,79.377401 92.970022,64.764449 109.61378,55.030046 130.39321,48.974781 151.43117,42.844179 147.80571,43 269.40722,43 c 127.09684,0 127.73771,0.03586 153.48578,8.588133 39.20587,13.022309 68.94541,39.227942 88.30988,77.816147 6.92093,13.79157 10.95681,24.77461 14.9175,40.59572 3.33849,13.33571 3.37909,13.76774 3.33628,35.5 -0.036,18.28584 -0.42788,24.19473 -2.32111,35 -6.96223,39.73583 -26.64767,72.14034 -58.13555,95.69788 -18.30731,13.69654 -45.7278,25.94671 -67.5,30.1558 -10.44457,2.01919 -28.93066,3.91394 -34,3.48488 l -4,-0.33856 v -46 -46 l 7,-0.75087 c 9.80574,-1.05183 23.57931,-5.15986 31.92484,-9.52172 4.66862,-2.4401 9.84021,-6.42403 15.20431,-11.71265 20.53601,-20.24702 24.82104,-47.08571 12.39336,-77.62408 C 422.52822,159.47506 410.21804,147.09815 393,140.66749 c -12.82196,-4.7888 -13.68961,-4.81931 -127.5,-4.48335 l -107,0.31586 -5.24164,2.36955 c -5.75405,2.60119 -11.53882,8.33894 -14.10553,13.99089 C 137.64051,156.19059 137.45749,172.3548 137,343 l -0.5,186.5 -45.573364,0.25997 c -25.065351,0.14298 -45.877851,-0.0445 -46.25,-0.41667 z m 85.057554,-5.15786 c 0.96994,-0.61609 1.29109,-39.84705 1.5,-183.23468 0.24817,-170.34122 0.38131,-182.78835 2.00595,-187.53711 3.43823,-10.04977 10.1032,-16.81184 20.4053,-20.70259 L 159.5,130.5 l 109.5,0.0144 109.5,0.0144 8,2.25844 c 26.85332,7.58085 43.90252,24.86673 51.96407,52.68544 4.03645,13.92894 4.82098,20.95586 3.58111,32.07517 -3.09939,27.7955 -21.82299,50.44269 -49.54518,59.9275 -2.75,0.94088 -9.05,2.49148 -14,3.44578 l -9,1.73508 -0.26151,40.36034 c -0.14383,22.19819 0.0812,40.69385 0.5,41.10148 0.99986,0.97309 24.81598,-1.57207 33.76151,-3.60801 19.15456,-4.35943 39.50408,-13.29457 57.36032,-25.18599 25.16141,-16.75632 44.5496,-41.94345 54.90288,-71.32412 3.81171,-10.81691 5.70554,-20.06055 7.8044,-38.0925 2.96856,-25.50388 0.9341,-45.35037 -7.21745,-70.4075 -2.97927,-9.15799 -11.90333,-28.51856 -16.57484,-35.95876 C 475.65193,81.120498 441.6836,58.577843 395.40397,50.276508 386.29282,48.64221 376.2942,48.5 270.5,48.5 h -115 l -10.0158,2.246101 C 111.70026,58.32234 88.594406,72.351416 71.149225,95.87973 c -9.868529,13.30968 -15.927564,26.78278 -19.854329,44.14883 -1.546836,6.84086 -1.716893,23.33224 -2.014928,195.39835 -0.262108,151.32439 -0.07761,188.08424 0.947263,188.73469 1.638719,1.04003 77.871119,1.06289 79.506959,0.0238 z M 203.5,524.62718 c -6.85644,-3.232 -13.49023,-9.37433 -17.0337,-15.77177 L 183.5,503.5 183.22232,437.06911 c -0.18965,-45.37245 -0.61726,-66.84006 -1.34893,-67.72166 -0.75208,-0.90621 -4.98942,-1.3737 -14.22232,-1.56911 L 154.5,367.5 v -44 -44 l 14,-0.5 14,-0.5 0.26055,-44.46055 c 0.15892,-27.11812 0.64009,-44.84009 1.23357,-45.43357 1.05029,-1.05029 6.27673,-1.00809 52.94066,0.42743 16.73914,0.51494 30.84348,1.34495 31.343,1.84447 0.49951,0.49951 1.20815,19.96886 1.57474,43.26521 0.3666,23.29636 1.02631,42.91951 1.46603,43.60701 0.61585,0.96289 9.25625,1.25 37.61802,1.25 29.89615,0 37.03161,0.25674 37.95182,1.36552 0.8147,0.98165 1.05996,13.42135 0.87245,44.25 L 347.5,367.5 l -38,0.53016 c -20.9,0.29159 -38.11826,0.62909 -38.26279,0.75 -0.14454,0.12091 -0.14454,16.08234 0,35.46984 l 0.26279,35.25 115,0.5 115,0.5 v 43 43 L 355,526.74204 208.5,526.98409 Z M 496.5,483.5 v -38 l -114.40266,-0.25425 c -82.52088,-0.1834 -114.77814,-0.56587 -115.75,-1.37245 -1.85794,-1.54195 -1.999,-77.82164 -0.14734,-79.6733 0.89031,-0.89031 10.79845,-1.2 38.39301,-1.2 32.99267,0 37.26156,-0.17864 37.8,-1.58179 0.33385,-0.86998 0.60699,-18.10498 0.60699,-38.3 0,-27.22527 -0.31024,-37.02845 -1.2,-37.91821 -0.89042,-0.89042 -10.81799,-1.2 -38.48095,-1.2 H 266.0381 l -0.47525,-2.25 c -0.26139,-1.2375 -0.77347,-21.07216 -1.13796,-44.07701 -0.47048,-29.69503 -0.99078,-41.93768 -1.7938,-42.20856 -1.99461,-0.67282 -72.93955,-2.48928 -73.54661,-1.88306 -0.32146,0.32101 -0.80948,20.68403 -1.08448,45.25115 l -0.5,44.66748 -12,0.24533 c -6.6,0.13493 -13.01778,0.48233 -14.26172,0.772 l -2.26173,0.52666 0.26173,38.728 L 159.5,362.5 l 12,0.24533 c 6.6,0.13493 12.99774,0.4773 14.21719,0.76082 l 2.21719,0.51548 0.28281,68.73919 c 0.28111,68.32544 0.29584,68.76326 2.44808,72.73918 1.9479,3.59847 6.85848,8.86679 11.57525,12.41854 5.39845,4.06505 3.04646,4.00632 151.75948,3.78936 L 496.5,521.5 Z"
                style="fill:#585b5a"/>
        <path
                id="path827"
                d="M 38.343746,560.96452 C 29.06752,559.11603 20.132283,551.71883 15.701474,542.2197 L 13.5,537.5 v -251 -251 l 2.269119,-4.920341 C 19.274905,22.977741 24.361051,17.460897 30.761153,14.318092 L 36.5,11.5 H 287 537.5 l 4.64917,2.149166 c 6.23529,2.882384 12.47752,9.323373 15.70287,16.202872 L 560.5,35.5 v 251 251 l -2.2183,4.75895 c -3.11078,6.67361 -10.38733,14.08875 -16.56794,16.88349 L 536.5,561.5 l -247,0.14638 c -135.85,0.0805 -248.870314,-0.22633 -251.156254,-0.68186 z m 498.908284,-7.39127 c 6.19222,-2.20979 10.42674,-6.17498 13.69952,-12.82821 L 554.02354,534.5 553.76177,286 553.5,37.5 551.13998,33 C 548.08221,27.169549 544.47123,23.340912 539.5,20.658417 L 535.5,18.5 H 287 38.5 l -4,2.158417 C 29.153587,23.543365 25.586532,27.459671 22.803614,33.5 l -2.303614,5 -0.30442,245 c -0.21761,175.13439 0.0086,246.46068 0.793118,250.12221 1.451927,6.77614 5.917323,13.62537 11.134262,17.07823 l 4.229874,2.79956 84.073586,0.51399 c 46.24047,0.28269 158.09858,0.60044 248.57358,0.7061 135.26541,0.15798 165.1668,-0.0458 168.25203,-1.14684 z M 45.2,528.8 C 44.275224,527.87522 44.001352,484.92881 44.005895,341.55 44.012221,141.89537 43.880098,147.50766 49.009702,129 53.669991,112.18563 65.951309,91.886835 79.602302,78.435963 87.218214,70.931699 102.62101,60.425125 112.5,55.995741 c 9.98249,-4.47579 27.33106,-9.528957 39.11933,-11.3944 C 160.43817,43.205797 175.51164,43 268.90874,43 c 69.18969,0 110.61146,0.378089 116.88067,1.066861 70.6108,7.757712 120.83762,52.605209 139.35853,124.433139 3.34386,12.96819 3.352,13.0575 3.32872,36.5 -0.0199,20.022 -0.36392,25.424 -2.3245,36.5 -5.69086,32.14971 -18.55982,57.05915 -41.08976,79.53426 -20.77265,20.72211 -45.90306,34.99217 -74.89362,42.52763 C 399.90185,366.23055 379.32104,369 369.75613,369 H 364 v -45.39671 -45.39671 l 8.75,-1.22807 c 19.68609,-2.76296 33.68987,-9.31161 45.81216,-21.42336 6.34828,-6.34276 8.94368,-9.86211 12.20885,-16.55515 5.33602,-10.93794 6.46227,-16.03695 6.51586,-29.5 0.0364,-9.15476 -0.40998,-12.50974 -2.66127,-20 -7.31313,-24.33145 -19.07217,-39.28122 -37.54871,-47.73727 -12.80289,-5.85942 -9.83541,-5.72645 -128.21206,-5.74537 -100.07147,-0.016 -109.05807,0.11838 -114,1.70452 -6.77951,2.17593 -13.78079,8.9072 -16.44763,15.8133 -1.86121,4.81982 -1.9251,10.37059 -2.18767,190.05957 l -0.27047,185.09476 -15.13852,0.65524 C 94.235686,530.49543 46.551931,530.15193 45.2,528.8 Z m 85.53167,-3.613 c 0.96662,-0.61401 1.28942,-40.15358 1.5,-183.73469 0.2557,-174.33828 0.3544,-183.18872 2.09634,-187.97349 4.81655,-13.23014 14.05413,-19.80138 30.22729,-21.50248 11.89145,-1.25075 192.60245,-1.22161 207.75054,0.0335 20.72275,1.717 33.08005,7.18922 46.35901,20.52931 6.69433,6.72514 8.98281,9.89166 12.70648,17.58164 12.21091,25.21747 13.16767,49.91818 2.73708,70.66359 -7.25432,14.42814 -17.88233,24.8082 -32.61692,31.85601 C 394.22463,276.11625 376.90612,281 371.84702,281 c -2.18909,0 -3.13471,0.62648 -3.87177,2.5651 -1.53947,4.0491 -1.28572,78.63001 0.27475,80.75423 1.13191,1.54083 2.28924,1.59987 12.25,0.62491 40.83525,-3.99696 75.82563,-19.97994 102.54716,-46.84172 20.45467,-20.56203 33.45258,-45.15044 38.87513,-73.54089 7.43264,-38.91442 4.46564,-69.78002 -9.90532,-103.04477 C 488.30785,86.636871 444.17492,54.150386 385,48.018997 379.40885,47.439673 331.6797,47.029954 269,47.023224 153.56311,47.010831 152.86613,47.039278 133.67437,52.546506 99.273437,62.418126 74.51218,82.76838 59.508955,113.5 53.991874,124.80083 50.734341,135.83849 49.031885,149 47.507718,160.78318 47.669877,523.26988 49.2,524.8 c 1.38024,1.38024 79.38516,1.7505 81.53167,0.387 z m 72.50037,-1.29935 c -6.65836,-3.29868 -13.82716,-10.36306 -16.93168,-16.68504 L 183.5,501.5 183,435 l -0.5,-66.5 -12.9352,-0.28126 c -7.44551,-0.16189 -13.4932,-0.74436 -14.25,-1.37244 C 154.26628,365.97611 154,357.17963 154,323.41274 c 0,-40.83921 0.0687,-42.37912 1.93426,-43.37756 C 156.9981,279.46583 163.5231,279 170.43426,279 H 183 l 0.0153,-44.25 c 0.008,-24.3375 0.40508,-44.86524 0.88145,-45.61719 0.72919,-1.15103 7.21836,-1.18211 41.0421,-0.19659 22.09678,0.64384 40.82902,1.42121 41.62719,1.7275 0.79817,0.30628 1.66826,1.51975 1.93355,2.69658 0.26528,1.17684 0.8239,20.8147 1.24137,43.6397 l 0.75903,41.5 37.66775,0.5 c 20.71726,0.275 38.04226,0.87748 38.5,1.33884 0.84544,0.85214 0.48565,85.74395 -0.36729,86.66116 -0.25573,0.275 -17.41545,0.725 -38.13271,1 l -37.66775,0.5 -0.26456,35 c -0.24201,32.01631 -0.11916,35.10656 1.44113,36.25 1.34093,0.98269 26.046,1.25 115.52541,1.25 H 501.0217 l -0.26086,42.25 -0.26085,42.25 -146.5,0.25104 -146.5,0.25105 -4.26796,-2.11444 z M 497.76174,483.75 c 0.14396,-21.3125 0.14396,-38.85777 0,-38.9895 C 497.61778,444.62878 445.525,444.29128 382,444.0105 L 266.5,443.5 266.22147,406 c -0.1532,-20.625 -0.0321,-38.5125 0.26905,-39.75 L 267.0381,364 h 37.28095 c 27.66296,0 37.59053,-0.30958 38.48095,-1.2 1.76221,-1.76221 1.71486,-75.72302 -0.05,-78.1044 -1.12784,-1.52182 -4.91482,-1.71153 -38.75,-1.94113 L 266.5,282.5 l -0.81343,-43 c -0.58404,-30.87357 -1.14806,-43.33735 -2,-44.19623 -1.72926,-1.74335 -73.31184,-3.85966 -75.28071,-2.22564 C 187.23669,194.04845 187,201.71639 187,238.62244 V 283 h -13.37756 c -10.0916,0 -13.65617,0.33572 -14.51186,1.36676 -0.81303,0.97965 -1.06014,12.37995 -0.87245,40.25 L 158.5,363.5 l 14,0.5 14,0.5 0.5,68.5 c 0.47909,65.63568 0.58253,68.66647 2.47359,72.48106 2.67054,5.38695 9.94629,12.2587 16.02641,15.13652 l 5,2.36658 L 354,522.74208 497.5,522.5 Z"
                style="fill:#0b100f"/>
    </g>
</svg>
